<svg width="257" height="241" viewBox="0 0 257 241" fill="none" xmlns="http://www.w3.org/2000/svg">
<path d="M138.5 150.5H187L127.5 0C127.5 0 96.6935 82.44 75.5 131.316C68.7579 146.864 58.1072 156.286 42.5 162.5H133C141.275 162.5 145.432 168.097 148.5 175C150.887 180.37 153.194 186.62 155.5 192.5C160.278 204.685 163.383 216.926 155.5 228C151.076 234.214 144.42 238.321 137 240H257C238.503 232.601 223.313 226.402 211.5 209C199.163 190.826 192.792 163.942 218.5 155H77.5L109 75.5L138.5 150.5Z" fill="#101010"/>
<path d="M81.5 240.5H0C37.1831 231.062 50.1007 200.215 62 166.5H73C61.7646 192.716 45.1551 228.042 81.5 240.5Z" fill="#101010"/>
</svg>
